<svg id="eNnk8eJPj541" xmlns="http://www.w3.org/2000/svg" xmlns:xlink="http://www.w3.org/1999/xlink" viewBox="0 0 1024 1024" shape-rendering="geometricPrecision" text-rendering="geometricPrecision"><g transform="translate(18.217987 0)"><g id="eNnk8eJPj543" opacity="0"><rect id="eNnk8eJPj544" width="53.02" height="189.75" rx="4" ry="4" transform="translate(466.233943 496.494642)" fill="#4688b4"></rect><g id="eNnk8eJPj545" transform="translate(0 0.000001)"><rect width="49.75" height="178.05" rx="4" ry="4" transform="matrix(-.710431 0.703767-.703767-.710431 528.886794 461.482238)" fill="#4688b4"></rect><rect width="49.75" height="178.05" rx="4" ry="4" transform="matrix(.707107 0.707107-.707107 0.707107 585.068741 335.845001)" fill="#4688b4"></rect></g></g><g id="eNnk8eJPj548" transform="translate(.000001 0)"><g transform="matrix(0-1 1 0-216.88051 1135.182213)"><rect width="49.75" height="178.05" rx="4" ry="4" transform="matrix(.703767 0.710431-.710431 0.703767 715.639878 536.432664)" fill="#4688b4"></rect><rect width="49.75" height="178.05" rx="4" ry="4" transform="matrix(-.710431 0.703767-.703767-.710431 658.866065 662.200466)" fill="#4688b4"></rect></g><rect id="eNnk8eJPj5412" width="53.02" height="189.75" rx="4" ry="4" transform="matrix(0-1 1 0 480.201795 636.965789)" fill="#4688b4"></rect></g></g></svg>