<svg width="1080" height="1080" viewBox="0 0 1080 1080" fill="none" xmlns="http://www.w3.org/2000/svg"><path fill="#2B86B3" d="M0 0h1080v1080H0z"/><path d="M355.311 515.208h-80.323a7.136 7.136 0 0 0-7.137 7.136v324.274a7.136 7.136 0 0 0 7.137 7.136h80.323a7.136 7.136 0 0 0 7.137-7.136V522.344a7.136 7.136 0 0 0-7.137-7.136Zm180.028-229.901-52.423-52.92a7.137 7.137 0 0 0-10.093-.047L257.28 445.861a7.137 7.137 0 0 0-.048 10.093l52.423 52.919a7.136 7.136 0 0 0 10.093.048l215.544-213.522a7.136 7.136 0 0 0 .047-10.092Z" fill="#323232"/><path d="m318.637 509.129 52.919-52.423a7.135 7.135 0 0 0 .048-10.092L158.082 231.07a7.136 7.136 0 0 0-10.092-.047l-52.92 52.423a7.136 7.136 0 0 0-.047 10.092l213.521 215.544a7.137 7.137 0 0 0 10.093.047Zm666.341 115.146-52.423-52.919a7.137 7.137 0 0 0-10.093-.048L706.918 784.83a7.137 7.137 0 0 0-.047 10.093l52.423 52.919a7.136 7.136 0 0 0 10.092.048L984.93 634.368a7.138 7.138 0 0 0 .048-10.093Z" fill="#323232"/><path d="m768.248 848.122 52.92-52.423a7.137 7.137 0 0 0 .047-10.093L607.694 570.063a7.137 7.137 0 0 0-10.093-.048l-52.919 52.423a7.136 7.136 0 0 0-.048 10.093l213.522 215.544a7.136 7.136 0 0 0 10.092.047ZM804.924 226h-80.323a7.137 7.137 0 0 0-7.137 7.137V557.41a7.137 7.137 0 0 0 7.137 7.137h80.323a7.137 7.137 0 0 0 7.137-7.137V233.137a7.137 7.137 0 0 0-7.137-7.137Z" fill="#323232"/></svg>