<?xml version="1.0" standalone="no"?>
<!DOCTYPE svg PUBLIC "-//W3C//DTD SVG 20010904//EN"
 "http://www.w3.org/TR/2001/REC-SVG-20010904/DTD/svg10.dtd">
<svg version="1.0" xmlns="http://www.w3.org/2000/svg"
 width="1047.000000pt" height="1047.000000pt" viewBox="0 0 1047.000000 1047.000000"
 preserveAspectRatio="xMidYMid meet">
<metadata>
Created by potrace 1.14, written by Peter Selinger 2001-2017
</metadata>
<g transform="translate(0.000000,1047.000000) scale(0.100000,-0.100000)"
fill="#000000" stroke="none">
<path d="M0 5235 l0 -5235 5235 0 5235 0 0 5235 0 5235 -5235 0 -5235 0 0
-5235z m7909 3590 c16 -8 31 -22 35 -30 3 -9 6 -847 6 -1861 l0 -1845 -25 -24
-24 -25 -479 0 c-470 0 -480 0 -506 21 l-26 20 0 1855 0 1855 25 24 24 25 471
0 c394 0 476 -2 499 -15z m-6147 -642 c342 -346 742 -748 888 -895 l265 -268
894 885 c492 487 903 888 914 891 10 3 28 3 40 0 12 -3 163 -146 335 -319 308
-309 312 -313 312 -354 0 -41 -2 -43 -379 -415 -208 -205 -761 -752 -1229
-1215 l-850 -843 -43 0 c-44 0 -44 0 -249 207 -113 115 -661 668 -1218 1229
-942 951 -1012 1024 -1012 1056 0 31 26 59 318 351 304 303 319 317 355 317
36 0 57 -20 659 -627z m1665 -3065 l23 -21 0 -1854 c0 -1822 0 -1853 -19
-1872 -11 -11 -35 -23 -53 -26 -18 -3 -237 -5 -486 -3 l-454 3 -24 28 -24 28
0 1843 0 1843 21 27 20 26 487 0 c485 0 486 0 509 -22z m2218 -607 c6 -3 404
-403 884 -888 481 -486 879 -883 884 -883 5 0 407 395 894 878 486 482 894
881 907 886 13 5 34 6 48 3 14 -4 156 -140 336 -321 288 -291 312 -317 312
-349 0 -33 -62 -96 -1062 -1088 -1553 -1538 -1397 -1389 -1444 -1389 -38 -1
-45 6 -424 389 -212 214 -760 767 -1217 1229 -812 819 -833 841 -833 878 -1
38 8 47 312 348 172 169 322 312 333 316 19 8 49 4 70 -9z"/>
</g>
</svg>
